<svg xmlns="http://www.w3.org/2000/svg" width="256" height="256"><path fill-opacity=".016" d="M0 128.004v128.004l128.25-.254 128.25-.254.254-127.75L257.008 0H0v128.004m.485.496c0 70.4.119 99.053.265 63.672.146-35.38.146-92.98 0-128C.604 29.153.485 58.1.485 128.5" fill="#1976D2" fill-rule="evenodd"/><path fill-opacity=".418" d="M113.5.624C81.964 5.386 59.196 16.615 37.905 37.905 22.227 53.583 13.296 67.927 6.503 88.34-5.858 125.483-.042 166.609 22.293 200c6.446 9.636 24.071 27.261 33.707 33.707a135.877 135.877 0 0 0 47 19.887c11.885 2.554 38.222 2.592 49.768.072 60.801-13.271 101.445-62.57 103.935-126.067.235-5.995.042-11.17-.43-11.5-.471-.329-1.368-4.205-1.993-8.612-2.494-17.592-11.966-40.147-23.253-55.37C212.22 26.753 184.825 9.303 153 2.419 145.729.846 119.827-.331 113.5.624M.378 128c0 6.325.163 8.912.361 5.75.198-3.163.198-8.338 0-11.5-.198-3.163-.361-.575-.361 5.75" fill="#1976D2" fill-rule="evenodd"/><path fill-opacity=".048" d="m126.772 30.897-.228 30.603L126 31 125.456.5l-.228 30.75c-.125 16.913-.566 30.697-.978 30.632-2.117-.335-4.305.221-3.839.974.291.471 2.68.66 5.309.421 3.445-.314 5.338.021 6.78 1.199 1.969 1.609 1.966 1.618-.184.579-3.408-1.646-8.484-1.24-12.316.984l-3.5 2.031 2.361-2.035c1.298-1.119 1.867-2.035 1.264-2.035-.763 0-1.184-9.022-1.388-29.75l-.293-29.75-.166 30.256c-.092 16.641-.518 30.816-.946 31.5-.429.684-.791 1.919-.806 2.744-.014.825-.54 1.404-1.168 1.286-.833-.156-1.185 7.912-1.3 29.796-.086 16.506-.402 30.777-.702 31.714-.412 1.288-.311 1.378.411.37.771-1.077 1.078-1.014 1.594.332.902 2.352.803 2.721-.516 1.907-.721-.446-.882-.274-.43.457.398.644 1.06.962 1.473.707.412-.254 6.118 5.022 12.681 11.726 6.562 6.705 9.218 9.606 5.902 6.447-3.316-3.158-6.339-5.742-6.717-5.742-.378 0-.71 24.31-.737 54.023l-.049 54.023 2.266-.461c1.246-.253 6.013-.727 10.592-1.052 42.862-3.048 82.599-30.284 102.597-70.322 17.163-34.36 17.163-78.062 0-112.422-13.954-27.938-35.721-48.521-64.376-60.875C164.143 4.92 151.89 2.185 132.25.693L127 .294l-.228 30.603m10.497-28.204c.973.254 2.323.237 3-.037.677-.274-.119-.481-1.769-.461-1.65.02-2.204.244-1.231.498m-.758 65.684c.946 1.443 1.908 2.623 2.139 2.623.724 0-1.605-3.854-2.759-4.567-.604-.374-.325.501.62 1.944M112.438 102.5c-.001 14.85.138 21.064.309 13.81.171-7.255.171-19.405.001-27-.17-7.596-.31-1.66-.31 13.19m4.952 36.207c.371.664.765 26.314.876 57l.201 55.793.275-53.959c.198-38.741.596-54.252 1.413-55 .805-.736.943-.693.47.148-.367.655.462 2.238 1.845 3.52l2.512 2.33.259 53.48.26 53.481.499-54.284.5-54.284-4.893-4.716c-2.69-2.594-4.588-4.173-4.217-3.509M123 145.5c1.292 1.375 2.574 2.5 2.849 2.5.275 0-.557-1.125-1.849-2.5-1.292-1.375-2.574-2.5-2.849-2.5-.275 0 .557 1.125 1.849 2.5m21.5 18.5c2.148 2.2 4.131 4 4.406 4 .275 0-1.258-1.8-3.406-4s-4.131-4-4.406-4c-.275 0 1.258 1.8 3.406 4m-7.75 89.662c.688.278 1.813.278 2.5 0 .688-.277.125-.504-1.25-.504s-1.937.227-1.25.504" fill="#1976D2" fill-rule="evenodd"/><path fill-opacity=".626" d="M120.217 66.561C115.26 70.033 115 71.836 115 102.8v28.9l2.879 3.9c1.584 2.145 12.946 13.871 25.25 26.058 18.867 18.687 22.952 22.267 26.078 22.853 8.194 1.537 15.866-5.978 14.35-14.058-.646-3.446-3.553-6.783-22.649-26.001L139 122.405V98.153c0-25.949-.371-28.198-5.217-31.592-2.871-2.012-10.695-2.012-13.566 0" fill="#1976D2" fill-rule="evenodd"/></svg>